<svg width="24" height="24" viewBox="0 0 24 24" fill="none" xmlns="http://www.w3.org/2000/svg">
<g clip-path="url(#clip0_29_66)">
<path d="M23.5628 21.4389L18.0488 15.9249C19.2738 14.2649 20.0078 12.2219 20.0078 10.0049C20.0078 4.49186 15.5218 0.00585938 10.0078 0.00585938C4.49381 0.00585938 0.0078125 4.49186 0.0078125 10.0059C0.0078125 15.5199 4.49381 20.0059 10.0078 20.0059C12.2248 20.0059 14.2678 19.2719 15.9278 18.0469L21.4418 23.5609C21.7348 23.8539 22.1188 23.9999 22.5028 23.9999C22.8868 23.9999 23.2708 23.8539 23.5638 23.5609C24.1498 22.9759 24.1498 22.0249 23.5638 21.4399L23.5628 21.4389ZM10.0078 17.0049C6.14881 17.0049 3.00781 13.8649 3.00781 10.0049C3.00781 6.14486 6.14881 3.00486 10.0078 3.00486C13.8668 3.00486 17.0078 6.14486 17.0078 10.0049C17.0078 13.8649 13.8668 17.0049 10.0078 17.0049Z" fill="white"/>
</g>
<defs>
<clipPath id="clip0_29_66">
<rect width="24" height="24" fill="white"/>
</clipPath>
</defs>
</svg>
