<svg width="102" height="18" viewBox="0 0 102 18" fill="none" xmlns="http://www.w3.org/2000/svg">
<path d="M7.21231 12.7959L4.36881 7.91404H2.48457V12.7959H0.925781V0.856685H4.77992C5.68208 0.856685 6.44149 1.01085 7.05815 1.31918C7.68623 1.62751 8.15444 2.04433 8.46277 2.56963C8.7711 3.09494 8.92527 3.69447 8.92527 4.36823C8.92527 5.19045 8.68545 5.9156 8.20583 6.54368C7.73762 7.17176 7.0296 7.58858 6.08177 7.79413L9.07943 12.7959H7.21231ZM2.48457 6.66358H4.77992C5.62498 6.66358 6.25877 6.45803 6.6813 6.04692C7.10383 5.62439 7.31509 5.06483 7.31509 4.36823C7.31509 3.66021 7.10383 3.11207 6.6813 2.7238C6.27019 2.33553 5.6364 2.1414 4.77992 2.1414H2.48457V6.66358Z" fill="white"/>
<path d="M19.9121 7.74274C19.9121 8.03965 19.895 8.35369 19.8607 8.68486H12.358C12.4151 9.60986 12.7291 10.335 13.3001 10.8603C13.8825 11.3742 14.5848 11.6311 15.407 11.6311C16.0808 11.6311 16.6404 11.477 17.0857 11.1686C17.5425 10.8489 17.8623 10.4264 18.045 9.90106H19.7237C19.4725 10.8032 18.97 11.5398 18.2163 12.1108C17.4626 12.6703 16.5262 12.9501 15.407 12.9501C14.5163 12.9501 13.7169 12.7503 13.0089 12.3506C12.3123 11.9509 11.7642 11.3856 11.3645 10.6548C10.9648 9.91248 10.7649 9.056 10.7649 8.08533C10.7649 7.11466 10.9591 6.2639 11.3474 5.53304C11.7356 4.80218 12.2781 4.24261 12.9747 3.85435C13.6827 3.45466 14.4935 3.25481 15.407 3.25481C16.2978 3.25481 17.0857 3.44895 17.7709 3.83722C18.4561 4.22549 18.9814 4.76221 19.3468 5.44739C19.7237 6.12115 19.9121 6.88627 19.9121 7.74274ZM18.3019 7.41728C18.3019 6.82346 18.1706 6.31528 17.908 5.89276C17.6453 5.45881 17.2856 5.13335 16.8288 4.91638C16.3834 4.68798 15.8867 4.57378 15.3385 4.57378C14.5506 4.57378 13.8768 4.82502 13.3172 5.32748C12.7691 5.82995 12.4551 6.52655 12.3751 7.41728H18.3019Z" fill="white"/>
<path d="M21.3873 8.0682C21.3873 7.10895 21.5814 6.2696 21.9697 5.55017C22.3579 4.81931 22.8889 4.25403 23.5627 3.85435C24.2479 3.45466 25.0073 3.25481 25.8409 3.25481C26.6631 3.25481 27.3769 3.43182 27.9821 3.78583C28.5874 4.13984 29.0384 4.5852 29.3354 5.12193V3.40898H30.9113V12.7959H29.3354V11.0487C29.027 11.5969 28.5645 12.0537 27.9479 12.4191C27.3426 12.7731 26.6346 12.9501 25.8238 12.9501C24.9902 12.9501 24.2365 12.7446 23.5627 12.3334C22.8889 11.9223 22.3579 11.3456 21.9697 10.6034C21.5814 9.86109 21.3873 9.01603 21.3873 8.0682ZM29.3354 8.08533C29.3354 7.37731 29.1926 6.76065 28.9071 6.23535C28.6216 5.71004 28.2334 5.31035 27.7423 5.03628C27.2627 4.75079 26.7317 4.60804 26.1493 4.60804C25.5669 4.60804 25.0358 4.74508 24.5562 5.01915C24.0766 5.29322 23.694 5.69291 23.4085 6.21822C23.123 6.74352 22.9803 7.36018 22.9803 8.0682C22.9803 8.78764 23.123 9.41572 23.4085 9.95245C23.694 10.4778 24.0766 10.8831 24.5562 11.1686C25.0358 11.4427 25.5669 11.5797 26.1493 11.5797C26.7317 11.5797 27.2627 11.4427 27.7423 11.1686C28.2334 10.8831 28.6216 10.4778 28.9071 9.95245C29.1926 9.41572 29.3354 8.79335 29.3354 8.08533Z" fill="white"/>
<path d="M32.9631 8.08533C32.9631 7.11466 33.1572 6.2696 33.5455 5.55017C33.9337 4.81931 34.4705 4.25403 35.1556 3.85435C35.8522 3.45466 36.6459 3.25481 37.5366 3.25481C38.69 3.25481 39.6379 3.5346 40.3801 4.09416C41.1338 4.65372 41.6306 5.43026 41.8704 6.42377H40.1917C40.0318 5.85279 39.7178 5.40171 39.2496 5.07054C38.7928 4.73937 38.2218 4.57378 37.5366 4.57378C36.6459 4.57378 35.9265 4.88212 35.3783 5.49878C34.8302 6.10402 34.5561 6.9662 34.5561 8.08533C34.5561 9.21588 34.8302 10.0895 35.3783 10.7061C35.9265 11.3228 36.6459 11.6311 37.5366 11.6311C38.2218 11.6311 38.7928 11.4713 39.2496 11.1515C39.7064 10.8318 40.0204 10.375 40.1917 9.78115H41.8704C41.6192 10.7404 41.1167 11.5112 40.363 12.0936C39.6093 12.6646 38.6672 12.9501 37.5366 12.9501C36.6459 12.9501 35.8522 12.7503 35.1556 12.3506C34.4705 11.9509 33.9337 11.3856 33.5455 10.6548C33.1572 9.9239 32.9631 9.06742 32.9631 8.08533Z" fill="white"/>
<path d="M45.8517 4.69369V10.2265C45.8517 10.6833 45.9488 11.0088 46.1429 11.2029C46.337 11.3856 46.6739 11.477 47.1535 11.477H48.3012V12.7959H46.8966C46.0287 12.7959 45.3778 12.5961 44.9438 12.1964C44.5099 11.7967 44.2929 11.1401 44.2929 10.2265V4.69369H43.0767V3.40898H44.2929V1.04511H45.8517V3.40898H48.3012V4.69369H45.8517Z" fill="white"/>
<path d="M56.6991 5.8585V7.17747H49.8644V5.8585H56.6991Z" fill="white"/>
<path d="M63.4101 12.9158C62.6222 12.9158 61.9141 12.7788 61.2861 12.5047C60.6694 12.2192 60.1841 11.831 59.83 11.3399C59.476 10.8375 59.2933 10.2608 59.2819 9.60986H60.9435C61.0006 10.1694 61.229 10.6433 61.6286 11.0316C62.0397 11.4085 62.6336 11.5969 63.4101 11.5969C64.1524 11.5969 64.7348 11.4142 65.1573 11.0487C65.5913 10.6719 65.8082 10.1923 65.8082 9.60986C65.8082 9.15307 65.6826 8.78193 65.4314 8.49644C65.1802 8.21095 64.8661 7.99397 64.4893 7.84552C64.1124 7.69706 63.6042 7.53719 62.9647 7.36589C62.1768 7.16034 61.543 6.95478 61.0634 6.74923C60.5952 6.54368 60.1898 6.22393 59.8472 5.78998C59.516 5.34461 59.3504 4.75079 59.3504 4.00851C59.3504 3.35759 59.516 2.7809 59.8472 2.27843C60.1783 1.77597 60.6408 1.3877 61.2347 1.11363C61.8399 0.839555 62.5308 0.70252 63.3073 0.70252C64.4265 0.70252 65.34 0.982301 66.0481 1.54187C66.7675 2.10143 67.1729 2.84371 67.2643 3.7687H65.5513C65.4942 3.31191 65.2544 2.91222 64.8319 2.56963C64.4093 2.21562 63.8498 2.03862 63.1532 2.03862C62.5022 2.03862 61.9712 2.20991 61.5601 2.5525C61.149 2.88367 60.9435 3.35188 60.9435 3.95712C60.9435 4.39107 61.0634 4.74508 61.3032 5.01915C61.5544 5.29322 61.857 5.50449 62.211 5.65294C62.5765 5.78998 63.0847 5.94985 63.7356 6.13257C64.5235 6.34954 65.1573 6.56652 65.6369 6.78349C66.1166 6.98904 66.5277 7.3145 66.8703 7.75987C67.2129 8.19382 67.3842 8.78764 67.3842 9.54134C67.3842 10.1237 67.23 10.6719 66.9217 11.1858C66.6133 11.6997 66.1565 12.1165 65.5513 12.4362C64.9461 12.756 64.2323 12.9158 63.4101 12.9158Z" fill="white"/>
<path d="M74.3373 3.23768C75.0453 3.23768 75.6848 3.39185 76.2558 3.70018C76.8268 3.99709 77.2721 4.44817 77.5919 5.05341C77.923 5.65865 78.0886 6.39522 78.0886 7.26311V12.7959H76.547V7.4858C76.547 6.54939 76.3129 5.83566 75.8447 5.34461C75.3765 4.84215 74.737 4.59091 73.9262 4.59091C73.1039 4.59091 72.4473 4.84786 71.9563 5.36174C71.4766 5.87563 71.2368 6.62361 71.2368 7.60571V12.7959H69.678V0.120117H71.2368V4.74508C71.5452 4.26545 71.9677 3.89432 72.5044 3.63166C73.0526 3.36901 73.6635 3.23768 74.3373 3.23768Z" fill="white"/>
<path d="M84.7289 12.9501C83.8496 12.9501 83.0502 12.7503 82.3307 12.3506C81.6227 11.9509 81.0631 11.3856 80.652 10.6548C80.2523 9.91248 80.0525 9.056 80.0525 8.08533C80.0525 7.12608 80.2581 6.28102 80.6692 5.55017C81.0917 4.80789 81.6627 4.24261 82.3821 3.85435C83.1016 3.45466 83.9066 3.25481 84.7974 3.25481C85.6881 3.25481 86.4932 3.45466 87.2126 3.85435C87.9321 4.24261 88.4974 4.80218 88.9085 5.53304C89.331 6.2639 89.5423 7.11466 89.5423 8.08533C89.5423 9.056 89.3253 9.91248 88.8913 10.6548C88.4688 11.3856 87.8921 11.9509 87.1613 12.3506C86.4304 12.7503 85.6196 12.9501 84.7289 12.9501ZM84.7289 11.5797C85.2884 11.5797 85.8137 11.4484 86.3048 11.1858C86.7958 10.9231 87.1898 10.5291 87.4867 10.0038C87.795 9.47853 87.9492 8.83903 87.9492 8.08533C87.9492 7.33163 87.8008 6.69213 87.5038 6.16683C87.2069 5.64152 86.8187 5.25326 86.339 5.00202C85.8594 4.73937 85.3398 4.60804 84.7803 4.60804C84.2093 4.60804 83.684 4.73937 83.2043 5.00202C82.7361 5.25326 82.3593 5.64152 82.0738 6.16683C81.7883 6.69213 81.6456 7.33163 81.6456 8.08533C81.6456 8.85045 81.7826 9.49566 82.0567 10.021C82.3421 10.5463 82.719 10.9402 83.1872 11.2029C83.6554 11.4541 84.1693 11.5797 84.7289 11.5797Z" fill="white"/>
<path d="M93.1506 5.13906C93.4589 4.60233 93.9157 4.15697 94.5209 3.80296C95.1376 3.43753 95.8513 3.25481 96.6621 3.25481C97.4958 3.25481 98.2494 3.45466 98.9232 3.85435C99.6084 4.25403 100.145 4.81931 100.533 5.55017C100.922 6.2696 101.116 7.10895 101.116 8.0682C101.116 9.01603 100.922 9.86109 100.533 10.6034C100.145 11.3456 99.6084 11.9223 98.9232 12.3334C98.2494 12.7446 97.4958 12.9501 96.6621 12.9501C95.8627 12.9501 95.1547 12.7731 94.5381 12.4191C93.9328 12.0537 93.4703 11.6026 93.1506 11.0659V17.2496H91.5918V3.40898H93.1506V5.13906ZM99.5227 8.0682C99.5227 7.36018 99.38 6.74352 99.0945 6.21822C98.809 5.69291 98.4207 5.29322 97.9297 5.01915C97.4501 4.74508 96.9191 4.60804 96.3366 4.60804C95.7657 4.60804 95.2347 4.75079 94.7436 5.03628C94.264 5.31035 93.8757 5.71575 93.5788 6.25247C93.2933 6.77778 93.1506 7.38873 93.1506 8.08533C93.1506 8.79335 93.2933 9.41572 93.5788 9.95245C93.8757 10.4778 94.264 10.8831 94.7436 11.1686C95.2347 11.4427 95.7657 11.5797 96.3366 11.5797C96.9191 11.5797 97.4501 11.4427 97.9297 11.1686C98.4207 10.8831 98.809 10.4778 99.0945 9.95245C99.38 9.41572 99.5227 8.78764 99.5227 8.0682Z" fill="white"/>
</svg>
